<svg version="1.1" id="Layer_1" xmlns="http://www.w3.org/2000/svg" xmlns:xlink="http://www.w3.org/1999/xlink" x="0px" y="0px"
	 width="100%" viewBox="0 0 60 59" enable-background="new 0 0 60 59" xml:space="preserve">
<path fill="#FFFFFE" opacity="1.000000" stroke="none" 
	d="
M35.000011,60.000000 
	C23.333342,60.000000 12.166675,60.000000 1.000006,60.000000 
	C1.000004,40.333336 1.000004,20.666672 1.000002,1.000006 
	C20.999998,1.000004 40.999996,1.000004 60.999992,1.000002 
	C60.999996,20.666664 60.999996,40.333328 61.000000,59.999996 
	C52.500004,60.000000 44.000011,60.000000 35.000011,60.000000 
M17.108004,49.444641 
	C17.108004,49.444641 17.013000,49.086487 17.259567,49.403606 
	C17.445969,49.595646 17.630152,49.789787 17.854425,50.812450 
	C19.551819,51.254227 21.249212,51.696007 23.105139,52.807110 
	C24.082846,53.197887 25.060553,53.588669 26.906227,53.973068 
	C28.934359,53.928196 30.962488,53.883324 33.747917,53.952801 
	C35.578259,53.190544 37.408600,52.428288 39.770992,51.597191 
	C40.827168,51.009777 41.883347,50.422359 43.638248,49.921989 
	C44.887039,49.043766 46.135830,48.165539 48.004078,47.183224 
	C48.351151,46.495724 48.698223,45.808220 49.552208,44.958721 
	C49.743298,44.670200 49.934391,44.381680 50.730137,43.770054 
	C51.534267,42.198723 52.338394,40.627388 53.682133,38.782887 
	C53.501892,37.874798 53.321651,36.966709 53.947514,35.972404 
	C56.163559,30.794596 54.657028,26.070147 49.931480,23.401194 
	C49.622448,23.237713 49.313419,23.074232 49.089836,22.026814 
	C49.057816,19.354271 49.025799,16.681726 48.769886,13.544788 
	C48.488968,13.356099 48.208050,13.167411 47.624783,12.227346 
	C45.691513,12.092169 43.758240,11.956992 41.668785,11.150614 
	C40.450500,10.151765 39.232212,9.152917 37.447998,8.050406 
	C37.256218,8.049687 37.064438,8.048970 36.515755,7.442031 
	C34.329754,7.956187 32.143757,8.470344 29.392275,9.209455 
	C29.226620,9.784346 29.060965,10.359237 28.016199,10.996575 
	C24.981310,11.289209 21.946419,11.581844 18.293898,11.976625 
	C17.881668,12.031993 17.469439,12.087360 16.399204,12.198404 
	C15.914049,12.645121 15.428895,13.091836 14.476037,13.610377 
	C14.210677,13.724980 13.945318,13.839582 13.679959,13.954186 
	C14.071994,14.190820 14.464027,14.427453 14.656751,14.414230 
	C14.432102,14.307338 14.235159,14.344902 13.362413,14.575045 
	C12.570222,15.380417 11.778030,16.185791 10.484408,17.200851 
	C10.338766,17.520071 10.193124,17.839293 9.515834,18.453037 
	C9.163150,20.766178 6.310306,23.268496 10.258827,25.614801 
	C10.460129,25.808558 10.695308,25.943108 10.969758,26.731882 
	C11.254725,27.826347 11.539694,28.920815 11.957594,30.904921 
	C12.025403,33.606052 12.093211,36.307182 12.009088,39.746410 
	C12.059900,40.494232 12.110712,41.242054 12.019145,42.845181 
	C12.877556,44.834038 10.008852,48.022160 14.615709,49.205235 
	C15.043973,49.258198 15.472237,49.311161 16.034264,49.700638 
	C16.344810,49.729378 16.655359,49.758118 17.108004,49.444641 
M16.883568,51.455982 
	C16.713425,51.442459 16.543280,51.428936 16.373138,51.415413 
	C16.451670,51.500134 16.530203,51.584854 16.883568,51.455982 
z"/>
<path fill="#FBFBF5" opacity="1.000000" stroke="none" 
	d="
M47.927132,12.978723 
	C48.208050,13.167411 48.488968,13.356099 48.586250,14.054046 
	C48.231564,17.395910 48.060513,20.228516 47.751152,23.355597 
	C45.618011,24.940458 43.336414,28.437614 42.410839,22.713614 
	C40.462673,21.599573 38.326103,20.721508 36.171268,19.699215 
	C36.153004,19.554985 35.969151,19.329727 36.260376,19.054279 
	C36.541592,18.511784 36.531574,18.244736 36.583557,17.976624 
	C36.645550,17.975561 36.749954,17.908653 37.129696,17.971409 
	C39.007446,17.360630 40.505459,16.687096 42.331791,15.961746 
	C44.104752,14.995129 45.549385,14.080325 47.221684,13.090761 
	C47.449345,13.016001 47.927132,12.978723 47.927132,12.978723 
z"/>
<path fill="#BD8D37" opacity="1.000000" stroke="none" 
	d="
M14.065923,14.526924 
	C14.235159,14.344902 14.432102,14.307338 14.773485,14.255495 
	C14.908060,13.910690 14.925900,13.724621 14.943740,13.538552 
	C15.428895,13.091836 15.914049,12.645121 16.865198,12.434786 
	C17.898998,12.836740 18.466803,13.002312 19.084900,13.490667 
	C20.114870,15.224693 21.094553,16.635935 22.040188,18.362690 
	C22.125505,19.298552 22.244869,19.918900 22.174103,20.857227 
	C21.345011,22.820210 20.706049,24.465214 19.944580,25.823463 
	C19.586393,25.207375 19.350714,24.878042 19.121384,24.214855 
	C19.087109,23.211407 19.046484,22.541815 18.934975,21.546696 
	C17.293833,20.120609 15.723576,19.020048 14.125029,17.667107 
	C14.081770,17.246080 14.066803,17.077436 14.046434,16.513783 
	C14.049330,15.588159 14.057626,15.057542 14.065923,14.526924 
z"/>
<path fill="#936D2C" opacity="1.000000" stroke="none" 
	d="
M50.103260,23.916912 
	C54.657028,26.070147 56.163559,30.794596 53.163280,35.996906 
	C51.618130,36.020603 50.857208,36.019798 50.053680,35.557358 
	C50.041798,31.369452 50.072529,27.643183 50.103260,23.916912 
z"/>
<path fill="#C28D33" opacity="1.000000" stroke="none" 
	d="
M32.990620,53.838451 
	C30.962488,53.883324 28.934359,53.928196 26.393467,53.674149 
	C25.900148,52.959713 25.919588,52.544193 25.863422,51.848236 
	C25.523355,51.050865 25.258892,50.533928 25.321678,49.968018 
	C26.092184,49.251682 26.535439,48.584316 27.022793,47.601105 
	C27.708853,46.850163 28.350811,46.415066 29.241993,45.992855 
	C29.491217,46.005741 29.989920,46.025932 30.030861,46.380379 
	C31.044743,49.102703 32.017681,51.470577 32.990620,53.838451 
z"/>
<path fill="#D0B560" opacity="1.000000" stroke="none" 
	d="
M47.384617,47.287312 
	C46.135830,48.165539 44.887039,49.043766 43.090958,49.637573 
	C41.016445,47.893875 39.489227,46.434597 37.967766,44.678970 
	C37.969746,43.987232 37.965969,43.591835 38.315834,43.137329 
	C39.136639,42.995049 39.603802,42.911888 40.460411,42.821270 
	C41.883389,42.858795 42.916924,42.903770 44.199802,43.024094 
	C44.611561,43.160919 44.773975,43.222389 44.961098,43.638901 
	C45.785416,45.091732 46.585014,46.189522 47.384617,47.287312 
z"/>
<path fill="#8D6326" opacity="1.000000" stroke="none" 
	d="
M14.051835,16.908791 
	C14.066803,17.077436 14.081770,17.246080 14.076656,17.940821 
	C14.042790,18.650959 14.029008,18.834999 13.845480,19.100147 
	C13.794349,19.438480 13.912964,19.695707 14.362888,20.012531 
	C15.155864,20.764109 15.617528,21.456085 16.028883,22.338001 
	C15.978573,22.527945 15.975933,22.920921 15.647394,22.940815 
	C14.540086,23.347174 13.761316,23.733637 12.805285,24.135881 
	C12.628020,24.151663 12.272194,24.143110 12.102222,23.999613 
	C11.750524,23.593138 11.500007,23.456173 11.044817,23.075930 
	C10.621783,21.190599 10.334633,19.674555 10.047482,18.158512 
	C10.193124,17.839293 10.338766,17.520071 11.117931,17.097507 
	C12.518248,16.965704 13.285041,16.937248 14.051835,16.908791 
z"/>
<path fill="#C5953B" opacity="1.000000" stroke="none" 
	d="
M33.369270,53.895626 
	C32.017681,51.470577 31.044743,49.102703 30.283237,46.369621 
	C30.662939,46.002232 30.831205,46.000046 31.332685,45.998718 
	C32.109615,45.999321 32.553333,45.999058 33.030800,46.339588 
	C34.712902,48.116222 36.361248,49.552063 38.303658,51.181499 
	C38.811462,51.472073 39.025200,51.569050 39.238941,51.666031 
	C37.408600,52.428288 35.578259,53.190544 33.369270,53.895626 
z"/>
<path fill="#45381D" opacity="1.000000" stroke="none" 
	d="
M19.034609,13.167883 
	C18.466803,13.002312 17.898998,12.836740 17.194201,12.406948 
	C17.469439,12.087360 17.881668,12.031993 19.065098,11.958845 
	C23.247147,11.874122 26.657995,11.807178 30.480904,11.784525 
	C32.267101,11.765033 33.641243,11.701252 35.342064,11.727972 
	C36.113598,11.765824 36.558449,11.713174 37.387978,11.746429 
	C38.818829,11.919473 39.865002,12.006610 40.945068,12.287996 
	C40.978954,12.482244 41.001556,12.875958 40.807255,12.973772 
	C40.612953,13.071587 40.204113,13.218781 39.787395,13.145725 
	C38.251232,13.088480 37.131783,13.104291 35.642960,13.059848 
	C34.528389,13.047840 33.783203,13.096086 32.631462,13.082460 
	C31.132290,13.075571 30.039667,13.130552 28.528275,13.115143 
	C26.413414,13.089010 24.717327,13.133268 22.625072,13.117353 
	C21.164141,13.094082 20.099375,13.130982 19.034609,13.167883 
z"/>
<path fill="#C8963B" opacity="1.000000" stroke="none" 
	d="
M35.015381,11.637471 
	C33.641243,11.701252 32.267101,11.765033 30.469223,11.594954 
	C30.045483,11.361094 30.025909,10.980247 30.249645,10.831579 
	C30.301506,10.116775 30.129631,9.550637 29.957756,8.984499 
	C32.143757,8.470344 34.329754,7.956187 36.410736,7.878739 
	C35.875603,9.422788 35.445492,10.530129 35.015381,11.637471 
z"/>
<path fill="#2F2512" opacity="1.000000" stroke="none" 
	d="
M50.017372,23.659054 
	C50.072529,27.643183 50.041798,31.369452 50.012440,35.931511 
	C50.051212,37.517654 50.088615,38.268005 50.077850,39.439949 
	C50.061619,41.272079 50.093552,42.682617 50.125484,44.093159 
	C49.934391,44.381680 49.743298,44.670200 49.237541,44.670994 
	C48.826881,43.643307 48.730888,42.903351 48.750526,41.800709 
	C48.835678,40.936745 48.805199,40.435467 48.819786,39.544136 
	C48.794632,38.114399 48.724415,37.074718 48.742729,35.562859 
	C48.577049,33.551121 48.322830,32.011551 48.080448,30.491135 
	C48.092285,30.510286 48.094753,30.525660 48.316879,30.180714 
	C48.554371,29.295748 48.569744,28.755732 48.656319,27.745758 
	C48.572975,26.669399 48.418430,26.062994 48.360981,25.151310 
	C48.652840,24.236137 48.847603,23.626247 49.048294,22.984407 
	C49.054222,22.952459 49.004387,22.910749 49.004387,22.910751 
	C49.313419,23.074232 49.622448,23.237713 50.017372,23.659054 
z"/>
<path fill="#CFAC53" opacity="1.000000" stroke="none" 
	d="
M37.962009,44.975319 
	C39.489227,46.434597 41.016445,47.893875 42.741592,49.594048 
	C41.883347,50.422359 40.827168,51.009777 39.504967,51.631611 
	C39.025200,51.569050 38.811462,51.472073 38.297478,50.822273 
	C39.505264,48.494633 33.689487,46.768532 37.962009,44.975319 
z"/>
<path fill="#C4A656" opacity="1.000000" stroke="none" 
	d="
M48.634895,42.163391 
	C48.730888,42.903351 48.826881,43.643307 48.984085,44.751991 
	C48.698223,45.808220 48.351151,46.495724 47.694347,47.235268 
	C46.585014,46.189522 45.785416,45.091732 45.212593,43.574104 
	C45.607750,43.115871 45.776119,43.077473 46.218231,42.981079 
	C46.729923,42.646992 46.967865,42.370895 47.444538,42.103561 
	C47.999783,42.142246 48.316994,42.159271 48.634895,42.163391 
z"/>
<path fill="#CB9D42" opacity="1.000000" stroke="none" 
	d="
M40.911179,12.093748 
	C39.865002,12.006610 38.818829,11.919473 37.428596,11.445086 
	C37.394333,10.089914 37.704128,9.121992 38.013924,8.154069 
	C39.232212,9.152917 40.450500,10.151765 41.522522,11.564678 
	C41.376263,11.978742 40.911179,12.093748 40.911179,12.093748 
z"/>
<path fill="#936B2E" opacity="1.000000" stroke="none" 
	d="
M9.781658,18.305775 
	C10.334633,19.674555 10.621783,21.190599 11.017343,23.269142 
	C10.962421,24.048714 10.881764,24.293087 10.626966,24.689192 
	C10.257401,24.966867 10.144651,25.120108 10.031902,25.273350 
	C6.310306,23.268496 9.163150,20.766178 9.781658,18.305775 
z"/>
<path fill="#4B4B44" opacity="1.000000" stroke="none" 
	d="
M12.272194,24.143110 
	C12.272194,24.143110 12.628020,24.151663 12.861219,24.530680 
	C13.132133,26.249504 13.169849,27.589312 13.110540,29.295937 
	C13.093710,30.156975 13.173903,30.651194 13.215372,31.526863 
	C13.201747,32.927788 13.226845,33.947266 13.164473,35.231968 
	C13.133325,35.674644 13.189647,35.852089 13.200779,36.354584 
	C13.196538,37.113640 13.237485,37.547646 13.160614,38.235626 
	C12.975043,38.663517 12.907290,38.837433 12.669922,39.007675 
	C12.500304,39.004002 12.161019,39.008312 12.161019,39.008312 
	C12.093211,36.307182 12.025403,33.606052 11.970015,30.040970 
	C12.079021,27.499050 12.175608,25.821081 12.272194,24.143110 
z"/>
<path fill="#AD8A43" opacity="1.000000" stroke="none" 
	d="
M50.427811,43.931606 
	C50.093552,42.682617 50.061619,41.272079 50.453537,39.432880 
	C51.632435,39.021500 52.387482,39.038776 53.142525,39.056053 
	C52.338394,40.627388 51.534267,42.198723 50.427811,43.931606 
z"/>
<path fill="#4E3B1A" opacity="1.000000" stroke="none" 
	d="
M17.812120,49.986031 
	C17.630152,49.789787 17.445969,49.595646 17.164875,49.019257 
	C17.070181,48.634911 17.035614,48.180996 17.227890,48.076897 
	C17.420168,47.972801 17.834812,47.834404 18.251091,47.891449 
	C19.783243,47.909451 20.899118,47.870407 22.329605,47.895561 
	C23.070541,47.998333 23.496868,48.036911 23.923666,48.345150 
	C23.803017,48.950706 23.681894,49.286610 23.255423,49.581062 
	C21.237421,49.688419 19.524771,49.837223 17.812120,49.986031 
z"/>
<path fill="#A27C37" opacity="1.000000" stroke="none" 
	d="
M53.412331,38.919472 
	C52.387482,39.038776 51.632435,39.021500 50.501701,39.011292 
	C50.088615,38.268005 50.051212,37.517654 50.055054,36.393150 
	C50.857208,36.019798 51.618130,36.020603 52.760231,36.040016 
	C53.321651,36.966709 53.501892,37.874798 53.412331,38.919472 
z"/>
<path fill="#A58945" opacity="1.000000" stroke="none" 
	d="
M30.025909,10.980247 
	C30.025909,10.980247 30.045483,11.361094 30.057163,11.550665 
	C26.657995,11.807178 23.247147,11.874122 19.373913,11.907772 
	C21.946419,11.581844 24.981310,11.289209 28.737957,10.986267 
	C29.648445,10.977388 29.837177,10.978817 30.025909,10.980247 
z"/>
<path fill="#C89841" opacity="1.000000" stroke="none" 
	d="
M17.833273,50.399239 
	C19.524771,49.837223 21.237421,49.688419 23.607695,49.708221 
	C24.508352,49.923550 24.751389,49.970272 24.994427,50.016994 
	C25.258892,50.533928 25.523355,51.050865 25.490498,51.798790 
	C24.444319,52.065781 23.695461,52.101784 22.946606,52.137783 
	C21.249212,51.696007 19.551819,51.254227 17.833273,50.399239 
z"/>
<path fill="#D4D3C2" opacity="1.000000" stroke="none" 
	d="
M47.889465,23.061123 
	C48.060513,20.228516 48.231564,17.395910 48.698196,14.286243 
	C49.025799,16.681726 49.057816,19.354271 49.047112,22.468781 
	C49.004387,22.910749 49.054222,22.952459 48.760605,23.010502 
	C48.274479,23.066069 48.081974,23.063597 47.889465,23.061123 
z"/>
<path fill="#CFAC53" opacity="1.000000" stroke="none" 
	d="
M37.730965,8.102238 
	C37.704128,9.121992 37.394333,10.089914 37.043922,11.359180 
	C36.558449,11.713174 36.113598,11.765824 35.342064,11.727972 
	C35.445492,10.530129 35.875603,9.422788 36.589188,8.181849 
	C37.064438,8.048970 37.256218,8.049687 37.730965,8.102238 
z"/>
<path fill="#4B4B4A" opacity="1.000000" stroke="none" 
	d="
M14.000478,49.002853 
	C10.008852,48.022160 12.877556,44.834038 12.255444,42.419819 
	C12.491741,41.994457 12.823479,41.983879 12.886549,42.330826 
	C13.041261,43.136211 13.132904,43.594654 13.182838,44.417328 
	C13.422906,45.889076 13.704682,46.996601 13.988286,48.328835 
	C13.990113,48.553543 14.000478,49.002853 14.000478,49.002853 
z"/>
<path fill="#514E43" opacity="1.000000" stroke="none" 
	d="
M40.945068,12.287996 
	C40.911179,12.093748 41.376263,11.978742 41.600616,11.900278 
	C43.758240,11.956992 45.691513,12.092169 47.775955,12.603035 
	C47.927132,12.978723 47.449345,13.016001 46.797676,13.022170 
	C44.431190,12.977546 42.716373,12.926752 41.001556,12.875958 
	C41.001556,12.875958 40.978954,12.482244 40.945068,12.287996 
z"/>
<path fill="#FAF8D3" opacity="1.000000" stroke="none" 
	d="
M12.102222,23.999613 
	C12.175608,25.821081 12.079021,27.499050 11.903547,29.596149 
	C11.539694,28.920815 11.254725,27.826347 10.952763,26.011349 
	C10.918439,25.048798 10.901111,24.806778 10.883781,24.564756 
	C10.881764,24.293087 10.962421,24.048714 11.153225,23.638428 
	C11.500007,23.456173 11.750524,23.593138 12.102222,23.999613 
z"/>
<path fill="#F1EEDC" opacity="1.000000" stroke="none" 
	d="
M23.025871,52.472446 
	C23.695461,52.101784 24.444319,52.065781 25.566101,52.079227 
	C25.919588,52.544193 25.900148,52.959713 25.959484,53.677338 
	C25.060553,53.588669 24.082846,53.197887 23.025871,52.472446 
z"/>
<path fill="#AA7C2E" opacity="1.000000" stroke="none" 
	d="
M14.046434,16.513783 
	C13.285041,16.937248 12.518248,16.965704 11.368647,16.992662 
	C11.778030,16.185791 12.570222,15.380417 13.714169,14.550984 
	C14.057626,15.057542 14.049330,15.588159 14.046434,16.513783 
z"/>
<path fill="#CDA247" opacity="1.000000" stroke="none" 
	d="
M30.249645,10.831579 
	C29.837177,10.978817 29.648445,10.977388 29.177511,10.955044 
	C29.060965,10.359237 29.226620,9.784346 29.675014,9.096977 
	C30.129631,9.550637 30.301506,10.116775 30.249645,10.831579 
z"/>
<path fill="#474335" opacity="1.000000" stroke="none" 
	d="
M12.823479,41.983879 
	C12.823479,41.983879 12.491741,41.994457 12.326633,41.992165 
	C12.110712,41.242054 12.059900,40.494232 12.085053,39.377361 
	C12.161019,39.008312 12.500304,39.004002 12.737490,39.344429 
	C13.043302,40.137264 13.111927,40.589676 13.089424,41.276756 
	C12.940024,41.668911 12.881752,41.826393 12.823479,41.983879 
z"/>
<path fill="#5B5A55" opacity="1.000000" stroke="none" 
	d="
M14.308094,49.104042 
	C14.000478,49.002853 13.990113,48.553543 14.368957,48.282028 
	C15.510405,48.067337 16.273008,48.124168 17.035614,48.180996 
	C17.035614,48.180996 17.070181,48.634911 17.041592,48.860699 
	C17.013000,49.086487 17.108004,49.444641 16.828745,49.363045 
	C16.333157,49.309006 16.116829,49.336563 15.900500,49.364124 
	C15.472237,49.311161 15.043973,49.258198 14.308094,49.104042 
z"/>
<path fill="#AA7C2E" opacity="1.000000" stroke="none" 
	d="
M14.709888,13.574465 
	C14.925900,13.724621 14.908060,13.910690 14.873140,14.380423 
	C14.464027,14.427453 14.071994,14.190820 13.679959,13.954185 
	C13.945318,13.839582 14.210677,13.724980 14.709888,13.574465 
z"/>
<path fill="#FDFCEB" opacity="1.000000" stroke="none" 
	d="
M10.626966,24.689192 
	C10.901111,24.806778 10.918439,25.048798 10.950066,25.654633 
	C10.695308,25.943108 10.460129,25.808558 10.145365,25.444077 
	C10.144651,25.120108 10.257401,24.966867 10.626966,24.689192 
z"/>
<path fill="#C4C4C2" opacity="1.000000" stroke="none" 
	d="
M15.967382,49.532379 
	C16.116829,49.336563 16.333157,49.309006 16.757696,49.534149 
	C16.655359,49.758118 16.344810,49.729378 15.967382,49.532379 
z"/>
<path fill="#DCBE87" opacity="1.000000" stroke="none" 
	d="
M16.746151,51.562778 
	C16.530203,51.584854 16.451670,51.500134 16.373138,51.415413 
	C16.543280,51.428936 16.713425,51.442459 16.746151,51.562778 
z"/>
<path fill="#EFE5C8" opacity="1.000000" stroke="none" 
	d="
M47.751152,23.355597 
	C48.081974,23.063597 48.274479,23.066069 48.754677,23.042450 
	C48.847603,23.626247 48.652840,24.236137 48.050793,25.348434 
	C47.291248,27.254845 46.938988,28.658852 46.444946,30.337168 
	C45.981144,31.756523 45.659119,32.901566 45.043610,34.133881 
	C44.506660,34.532055 44.263191,34.842960 44.026997,35.104622 
	C44.034271,35.055378 44.127731,35.089684 43.777302,35.049004 
	C42.959564,35.013756 42.492252,35.019184 41.766232,34.848911 
	C40.449978,33.766483 39.392437,32.859760 38.217121,31.650927 
	C37.555019,31.225531 37.010689,31.102245 36.717144,30.874939 
	C37.279190,30.172098 37.590454,29.573284 38.203651,28.804733 
	C39.744534,26.739861 40.983486,24.844725 42.222435,22.949591 
	C43.336414,28.437614 45.618011,24.940458 47.751152,23.355597 
z"/>
<path fill="#FBF9F1" opacity="1.000000" stroke="none" 
	d="
M42.410839,22.713614 
	C40.983486,24.844725 39.744534,26.739861 37.920326,28.806602 
	C36.954906,28.982241 36.574749,28.986269 36.077789,28.512691 
	C35.601082,26.960861 35.241177,25.886639 34.995842,24.522156 
	C34.973488,23.155376 34.836563,22.078857 34.938713,20.797531 
	C35.515038,20.342964 35.852287,20.093204 36.189533,19.843445 
	C38.326103,20.721508 40.462673,21.599573 42.410839,22.713614 
z"/>
<path fill="#F7F5E8" opacity="1.000000" stroke="none" 
	d="
M36.171268,19.699215 
	C35.852287,20.093204 35.515038,20.342964 34.527969,20.786291 
	C32.233429,20.955055 30.588703,20.930254 28.922125,20.819927 
	C28.900272,20.734404 28.992592,20.583920 29.363802,20.284676 
	C29.529099,19.388901 29.323185,18.792372 29.454390,18.188053 
	C30.576433,17.808434 31.361359,17.436605 32.444809,17.057560 
	C33.138744,17.023296 33.534157,16.996250 34.254349,16.987846 
	C35.302742,17.307211 36.026348,17.607931 36.749954,17.908653 
	C36.749954,17.908653 36.645550,17.975561 36.260143,18.059029 
	C35.906208,18.538239 35.937679,18.933983 35.969147,19.329727 
	C35.969151,19.329727 36.153004,19.554985 36.171268,19.699215 
z"/>
<path fill="#F4EEDA" opacity="1.000000" stroke="none" 
	d="
M37.129696,17.971409 
	C36.026348,17.607931 35.302742,17.307211 34.315445,16.811428 
	C34.051750,16.616365 34.185421,16.267580 34.494019,16.227648 
	C35.194511,16.051830 35.586411,15.915946 36.309090,15.774897 
	C37.856445,15.199472 39.073025,14.629213 40.514515,14.201273 
	C41.160774,14.900247 41.582123,15.456903 42.003468,16.013561 
	C40.505459,16.687096 39.007446,17.360630 37.129696,17.971409 
z"/>
<path fill="#F1E8CB" opacity="1.000000" stroke="none" 
	d="
M42.331791,15.961746 
	C41.582123,15.456903 41.160774,14.900247 40.475754,13.992796 
	C40.212082,13.642003 40.204113,13.218781 40.204113,13.218781 
	C40.204113,13.218781 40.612953,13.071587 40.807255,12.973772 
	C42.716373,12.926752 44.431190,12.977546 46.570015,13.096931 
	C45.549385,14.080325 44.104752,14.995129 42.331791,15.961746 
z"/>
<path fill="#B1B0A7" opacity="1.000000" stroke="none" 
	d="
M36.260376,19.054279 
	C35.937679,18.933983 35.906208,18.538239 36.198151,18.060091 
	C36.531574,18.244736 36.541592,18.511784 36.260376,19.054279 
z"/>
<path fill="#FCFCF6" opacity="1.000000" stroke="none" 
	d="
M13.251943,34.966740 
	C13.226845,33.947266 13.201747,32.927788 13.413692,31.506872 
	C13.650733,31.105431 14.041387,31.025629 14.332123,31.001434 
	C15.087331,30.671917 15.551804,30.366596 16.282845,29.866608 
	C17.052935,28.463478 17.556458,27.255018 18.314367,25.859858 
	C18.750847,25.298340 18.932941,24.923525 19.115034,24.548708 
	C19.350714,24.878042 19.586393,25.207375 19.961830,26.123741 
	C20.698420,27.140257 21.295250,27.569738 21.942978,28.223423 
	C21.993876,28.447624 22.072924,28.900599 21.928915,29.213150 
	C19.226208,31.666668 16.667511,33.807636 14.013903,35.744713 
	C13.775778,35.257507 13.553429,35.066147 13.251943,34.966740 
z"/>
<path fill="#382914" opacity="1.000000" stroke="none" 
	d="
M22.364235,20.539249 
	C22.244869,19.918900 22.125505,19.298552 22.274738,18.304546 
	C22.543339,17.930889 22.979355,17.722292 23.290569,17.691658 
	C24.385071,17.371794 25.168360,17.082563 26.180094,16.892399 
	C26.744310,17.119131 26.964302,17.354853 26.970589,18.027582 
	C26.595434,18.978443 26.318205,19.600349 26.064014,20.421635 
	C26.087055,20.621016 25.991379,21.010860 25.681469,21.082464 
	C24.888699,21.451193 24.405838,21.748318 23.680687,21.880203 
	C23.080341,21.323057 22.722288,20.931152 22.364235,20.539249 
z"/>
<path fill="#FBFBF7" opacity="1.000000" stroke="none" 
	d="
M22.174103,20.857227 
	C22.722288,20.931152 23.080341,21.323057 23.715744,21.853828 
	C23.993092,21.992695 24.048149,21.924391 23.660851,21.987663 
	C23.168568,23.085958 23.063583,24.120979 22.923153,25.240818 
	C22.887703,25.325634 22.964607,25.492632 23.012476,25.931892 
	C23.140448,26.654631 23.220552,26.938105 23.024029,27.265276 
	C22.462294,27.539055 22.177187,27.769136 21.892082,27.999218 
	C21.295250,27.569738 20.698420,27.140257 20.084339,26.410496 
	C20.706049,24.465214 21.345011,22.820210 22.174103,20.857227 
z"/>
<path fill="#C99C41" opacity="1.000000" stroke="none" 
	d="
M22.979355,17.722292 
	C22.979355,17.722292 22.543339,17.930889 22.308786,17.989033 
	C21.094553,16.635935 20.114870,15.224693 19.084900,13.490667 
	C20.099375,13.130982 21.164141,13.094082 22.618855,13.424278 
	C23.006443,14.201289 23.004087,14.611204 23.002634,15.358891 
	C22.995478,16.371872 22.987415,17.047083 22.979355,17.722292 
z"/>
<path fill="#EBE2B1" opacity="1.000000" stroke="none" 
	d="
M19.121384,24.214855 
	C18.932941,24.923525 18.750847,25.298340 17.957851,25.792786 
	C16.889944,24.915251 16.432940,23.918085 15.975933,22.920921 
	C15.975933,22.920921 15.978573,22.527945 16.396217,22.322582 
	C17.544525,22.035553 18.275192,21.953886 19.005857,21.872221 
	C19.046484,22.541815 19.087109,23.211407 19.121384,24.214855 
z"/>
<path fill="#AA7C2E" opacity="1.000000" stroke="none" 
	d="
M18.934975,21.546696 
	C18.275192,21.953886 17.544525,22.035553 16.446526,22.132641 
	C15.617528,21.456085 15.155864,20.764109 14.356161,19.779358 
	C14.018122,19.486582 14.015224,19.019041 14.015224,19.019041 
	C14.029008,18.834999 14.042790,18.650959 14.104946,18.193203 
	C15.723576,19.020048 17.293833,20.120609 18.934975,21.546696 
z"/>
<path fill="#CFB25C" opacity="1.000000" stroke="none" 
	d="
M28.992767,45.979969 
	C28.350811,46.415066 27.708853,46.850163 26.697739,47.620132 
	C25.894814,47.937328 25.461044,47.919647 24.977695,47.556107 
	C24.660336,45.847755 24.392559,44.485260 24.475145,43.061054 
	C25.638727,42.602612 26.451946,42.205879 27.479492,41.685196 
	C28.103237,41.368145 28.512653,41.175041 28.925055,41.399181 
	C28.949615,43.204273 28.971191,44.592121 28.992767,45.979969 
z"/>
<path fill="#C4A656" opacity="1.000000" stroke="none" 
	d="
M29.241993,45.992855 
	C28.971191,44.592121 28.949615,43.204273 29.217905,41.434517 
	C29.696415,41.105675 29.885057,41.158737 30.094273,41.507790 
	C30.411657,42.535099 30.708466,43.266418 31.002922,44.331314 
	C31.000206,45.109211 30.999838,45.553535 30.999470,45.997856 
	C30.831205,46.000046 30.662939,46.002232 30.242298,46.015175 
	C29.989920,46.025932 29.491217,46.005741 29.241993,45.992855 
z"/>
<path fill="#AE8030" opacity="1.000000" stroke="none" 
	d="
M25.027277,47.901962 
	C25.461044,47.919647 25.894814,47.937328 26.653637,47.935982 
	C26.535439,48.584316 26.092184,49.251682 25.321678,49.968018 
	C24.751389,49.970272 24.508352,49.923550 23.913046,49.749672 
	C23.681894,49.286610 23.803017,48.950706 24.198883,48.296303 
	C24.658176,47.952526 24.842728,47.927246 25.027277,47.901962 
z"/>
<path fill="#CDA247" opacity="1.000000" stroke="none" 
	d="
M37.967766,44.678970 
	C33.689487,46.768532 39.505264,48.494633 38.003414,50.628681 
	C36.361248,49.552063 34.712902,48.116222 33.032494,46.018475 
	C33.014828,44.929096 33.029224,44.501625 33.246922,43.972687 
	C33.719536,43.706535 33.909447,43.476337 34.332237,43.153038 
	C35.060635,43.143524 35.476734,43.161606 36.253510,43.222824 
	C37.083630,43.147621 37.553070,43.029282 38.005764,42.981964 
	C37.989014,43.052986 37.962196,43.196442 37.962196,43.196442 
	C37.965969,43.591835 37.969746,43.987232 37.967766,44.678970 
z"/>
<path fill="#514528" opacity="1.000000" stroke="none" 
	d="
M43.950455,42.948746 
	C42.916924,42.903770 41.883389,42.858795 40.436024,42.532379 
	C40.014938,41.862602 40.007683,41.474266 40.397701,41.102985 
	C41.851292,41.132977 42.907604,41.145912 43.968086,41.457359 
	C43.964989,42.153500 43.957722,42.551121 43.950455,42.948746 
z"/>
<path fill="#78683B" opacity="1.000000" stroke="none" 
	d="
M40.000427,41.085930 
	C40.007683,41.474266 40.014938,41.862602 40.046577,42.539833 
	C39.603802,42.911888 39.136639,42.995049 38.315834,43.137329 
	C37.962196,43.196442 37.989014,43.052986 37.996700,42.575066 
	C37.979229,41.279797 37.954071,40.462448 38.289486,39.517609 
	C39.082142,39.657616 39.514221,39.925125 39.956139,40.416183 
	C39.965981,40.639729 40.000427,41.085930 40.000427,41.085930 
z"/>
<path fill="#988047" opacity="1.000000" stroke="none" 
	d="
M44.199799,43.024094 
	C43.957722,42.551121 43.964989,42.153500 43.926857,40.989876 
	C43.778332,39.929077 43.675209,39.634270 43.798058,39.170712 
	C44.199272,39.070049 44.374527,39.138142 44.724567,39.580208 
	C45.247734,40.982487 45.596107,42.010780 45.944485,43.039078 
	C45.776119,43.077473 45.607750,43.115871 45.187881,43.219063 
	C44.773975,43.222389 44.611561,43.160919 44.199799,43.024094 
z"/>
<path fill="#F2EFC3" opacity="1.000000" stroke="none" 
	d="
M15.647394,22.940815 
	C16.432940,23.918085 16.889944,24.915251 17.703465,25.979488 
	C17.556458,27.255018 17.052935,28.463478 16.118637,29.607353 
	C15.119659,29.362869 14.551458,29.182972 13.789232,28.985649 
	C13.595209,28.968222 13.207565,28.929119 13.207565,28.929119 
	C13.169849,27.589312 13.132133,26.249504 13.038483,24.514898 
	C13.761316,23.733637 14.540086,23.347174 15.647394,22.940815 
z"/>
<path fill="#9D722B" opacity="1.000000" stroke="none" 
	d="
M13.845480,19.100147 
	C14.015224,19.019041 14.018122,19.486582 14.024850,19.719757 
	C13.912964,19.695707 13.794349,19.438480 13.845480,19.100147 
z"/>
<path fill="#BA9648" opacity="1.000000" stroke="none" 
	d="
M33.043625,44.074150 
	C33.029224,44.501625 33.014828,44.929096 32.998741,45.677685 
	C32.553333,45.999058 32.109615,45.999321 31.332685,45.998718 
	C30.999838,45.553535 31.000206,45.109211 31.342655,44.334484 
	C32.137699,44.027435 32.590660,44.050793 33.043625,44.074150 
z"/>
<path fill="#B18F45" opacity="1.000000" stroke="none" 
	d="
M34.185421,16.267580 
	C34.185421,16.267580 34.051750,16.616365 33.990658,16.792784 
	C33.534157,16.996250 33.138744,17.023296 32.126942,16.926308 
	C30.668627,15.842163 29.826704,14.882054 28.975674,13.737825 
	C28.966566,13.553706 28.947046,13.185534 28.947046,13.185534 
	C30.039667,13.130552 31.132290,13.075571 32.654457,13.415993 
	C33.451145,14.630124 33.818283,15.448852 34.185421,16.267580 
z"/>
<path fill="#CEAC55" opacity="1.000000" stroke="none" 
	d="
M28.528275,13.115143 
	C28.947046,13.185534 28.966566,13.553706 28.661459,13.786662 
	C27.588112,14.366527 26.819872,14.713436 25.669979,15.039631 
	C24.526127,15.019650 23.763929,15.020384 23.001730,15.021118 
	C23.004087,14.611204 23.006443,14.201289 23.015018,13.484451 
	C24.717327,13.133268 26.413414,13.089010 28.528275,13.115143 
z"/>
<path fill="#D2B45E" opacity="1.000000" stroke="none" 
	d="
M39.787395,13.145725 
	C40.204113,13.218781 40.212082,13.642003 40.250839,13.850479 
	C39.073025,14.629213 37.856445,15.199472 36.312748,15.443821 
	C35.994530,14.451974 36.003433,13.786037 36.012337,13.120101 
	C37.131783,13.104291 38.251232,13.088480 39.787395,13.145725 
z"/>
<path fill="#C7A857" opacity="1.000000" stroke="none" 
	d="
M35.642960,13.059848 
	C36.003433,13.786037 35.994530,14.451974 35.981964,15.448986 
	C35.586411,15.915946 35.194511,16.051830 34.494019,16.227648 
	C33.818283,15.448852 33.451145,14.630124 33.061012,13.477863 
	C33.783203,13.096086 34.528389,13.047840 35.642960,13.059848 
z"/>
<path fill="#B19046" opacity="1.000000" stroke="none" 
	d="
M48.654194,36.035034 
	C48.724415,37.074718 48.794632,38.114399 48.536774,39.594002 
	C47.798481,40.399052 47.388271,40.764187 46.696823,40.956070 
	C45.781116,40.250870 45.146648,39.718922 44.128532,39.049164 
	C43.872501,37.637463 44.000118,36.363575 44.127731,35.089684 
	C44.127731,35.089684 44.034271,35.055378 44.232765,35.337559 
	C44.636215,35.585407 44.841171,35.551075 45.321999,35.656273 
	C46.616642,35.875546 47.635418,35.955292 48.654194,36.035034 
z"/>
<path fill="#AA853E" opacity="1.000000" stroke="none" 
	d="
M48.742729,35.562859 
	C47.635418,35.955292 46.616642,35.875546 45.373638,35.284222 
	C45.211971,34.530632 45.274532,34.288620 45.337093,34.046608 
	C45.659119,32.901566 45.981144,31.756523 46.801064,30.334064 
	C47.534039,30.066032 47.769115,30.075417 48.047791,30.196217 
	C48.091385,30.307634 48.168728,30.534071 48.158047,30.537617 
	C48.147366,30.541164 48.068611,30.471985 48.068611,30.471985 
	C48.322830,32.011551 48.577049,33.551121 48.742729,35.562859 
z"/>
<path fill="#9E7735" opacity="1.000000" stroke="none" 
	d="
M48.004196,30.084801 
	C47.769115,30.075417 47.534039,30.066032 46.942841,30.059753 
	C46.938988,28.658852 47.291248,27.254845 47.953697,25.653713 
	C48.418430,26.062994 48.572975,26.669399 48.498947,27.936230 
	C48.181644,29.092705 48.092922,29.588753 48.004196,30.084801 
z"/>
<path fill="#91763B" opacity="1.000000" stroke="none" 
	d="
M46.978062,41.129322 
	C47.388271,40.764187 47.798481,40.399052 48.491707,39.984051 
	C48.805199,40.435467 48.835678,40.936745 48.750526,41.800709 
	C48.316994,42.159271 47.999783,42.142246 47.356842,41.869308 
	C47.030418,41.626293 46.978062,41.129322 46.978062,41.129322 
z"/>
<path fill="#AA853E" opacity="1.000000" stroke="none" 
	d="
M48.047791,30.196217 
	C48.092922,29.588753 48.181644,29.092705 48.427742,28.406185 
	C48.569744,28.755732 48.554371,29.295748 48.340656,30.150440 
	C48.142311,30.465115 48.168728,30.534071 48.168728,30.534071 
	C48.168728,30.534071 48.091385,30.307634 48.047791,30.196217 
z"/>
<path fill="#EFE5C8" opacity="1.000000" stroke="none" 
	d="
M48.158047,30.537617 
	C48.168728,30.534071 48.142311,30.465115 48.118530,30.495388 
	C48.094753,30.525660 48.092285,30.510286 48.080448,30.491135 
	C48.068611,30.471985 48.147366,30.541164 48.158047,30.537617 
z"/>
<path fill="#3B311C" opacity="1.000000" stroke="none" 
	d="
M46.696823,40.956070 
	C46.978062,41.129322 47.030418,41.626293 47.118111,41.860546 
	C46.967865,42.370895 46.729923,42.646992 46.218231,42.981079 
	C45.596107,42.010780 45.247734,40.982487 44.726189,39.569931 
	C44.553020,39.185669 44.512180,39.186970 44.512180,39.186970 
	C45.146648,39.718922 45.781116,40.250870 46.696823,40.956070 
z"/>
<path fill="#EFE2BF" opacity="1.000000" stroke="none" 
	d="
M14.108814,35.948608 
	C16.667511,33.807636 19.226208,31.666668 22.260399,29.391895 
	C23.301743,30.265163 23.867592,31.272238 24.627613,32.467770 
	C24.887848,33.441002 24.953911,34.225777 24.865337,35.306965 
	C23.153345,36.410889 21.595989,37.218395 19.720243,37.889938 
	C15.094646,36.612518 16.301006,39.925152 15.718374,41.982483 
	C15.294146,41.952118 15.124630,41.937599 14.862061,41.719624 
	C14.593638,41.259754 14.358575,41.082420 14.063761,40.660294 
	C13.801947,39.551495 13.540189,38.766575 13.278431,37.981655 
	C13.237485,37.547646 13.196538,37.113640 13.417002,36.340416 
	C13.678412,36.001202 14.108814,35.948608 14.108814,35.948608 
z"/>
<path fill="#C7BD9D" opacity="1.000000" stroke="none" 
	d="
M13.160613,38.235626 
	C13.540189,38.766575 13.801947,39.551495 13.842644,40.675407 
	C13.621582,41.014397 13.180552,41.042084 13.180552,41.042084 
	C13.111927,40.589676 13.043302,40.137264 12.907107,39.348099 
	C12.907290,38.837433 12.975043,38.663517 13.160613,38.235626 
z"/>
<path fill="#C7BD9D" opacity="1.000000" stroke="none" 
	d="
M13.110540,29.295937 
	C13.207565,28.929119 13.595209,28.968222 13.778003,29.323063 
	C13.987659,30.127148 14.014523,30.576387 14.041387,31.025629 
	C14.041387,31.025629 13.650733,31.105431 13.452414,31.125423 
	C13.173903,30.651194 13.093710,30.156975 13.110540,29.295937 
z"/>
<path fill="#D4D4D2" opacity="1.000000" stroke="none" 
	d="
M14.013903,35.744713 
	C14.108814,35.948608 13.678412,36.001202 13.462191,36.015366 
	C13.189647,35.852089 13.133325,35.674644 13.164473,35.231968 
	C13.553429,35.066147 13.775778,35.257507 14.013903,35.744713 
z"/>
<path fill="#EEEDE3" opacity="1.000000" stroke="none" 
	d="
M14.955112,41.923077 
	C15.124630,41.937599 15.294146,41.952118 15.921830,42.099964 
	C16.615557,42.439926 16.837793,42.660011 17.019920,42.937813 
	C16.993130,42.982082 16.951939,43.077019 16.732479,43.130547 
	C16.737825,43.422729 16.962629,43.661388 17.369492,44.057404 
	C17.774660,44.454575 17.932014,44.731735 18.002686,45.394905 
	C17.932781,46.440525 17.883797,47.137463 17.834812,47.834404 
	C17.834812,47.834404 17.420168,47.972801 17.227890,48.076897 
	C16.273008,48.124168 15.510405,48.067337 14.367129,48.057316 
	C13.704682,46.996601 13.422906,45.889076 13.422027,44.394936 
	C14.120319,43.313236 14.537716,42.618156 14.955112,41.923077 
z"/>
<path fill="#C79940" opacity="1.000000" stroke="none" 
	d="
M18.251091,47.891449 
	C17.883797,47.137463 17.932781,46.440525 18.312286,45.288109 
	C19.592937,44.368439 20.543066,43.904247 21.622013,43.865948 
	C21.838884,45.471680 21.926939,46.651524 22.014994,47.831364 
	C20.899118,47.870407 19.783243,47.909451 18.251091,47.891449 
z"/>
<path fill="#CAA34B" opacity="1.000000" stroke="none" 
	d="
M22.329605,47.895561 
	C21.926939,46.651524 21.838884,45.471680 21.560867,43.838295 
	C21.370903,43.384754 21.379562,43.242672 21.817371,43.147255 
	C22.547436,42.989990 22.839687,42.928146 23.383152,42.918793 
	C23.797838,43.021778 23.961309,43.072269 24.124783,43.122765 
	C24.392559,44.485260 24.660336,45.847755 24.977695,47.556107 
	C24.842728,47.927246 24.658176,47.952526 24.198410,48.026649 
	C23.496868,48.036911 23.070541,47.998333 22.329605,47.895561 
z"/>
<path fill="#CECDC5" opacity="1.000000" stroke="none" 
	d="
M14.862061,41.719624 
	C14.537716,42.618156 14.120319,43.313236 13.463736,44.030708 
	C13.132904,43.594654 13.041261,43.136211 12.886549,42.330826 
	C12.881752,41.826393 12.940024,41.668911 13.089424,41.276756 
	C13.180552,41.042084 13.621582,41.014397 13.842700,40.999283 
	C14.358575,41.082420 14.593638,41.259754 14.862061,41.719624 
z"/>
<path fill="#FDFCF9" opacity="1.000000" stroke="none" 
	d="
M44.128532,39.049164 
	C44.512180,39.186970 44.553020,39.185669 44.551399,39.195950 
	C44.374527,39.138142 44.199272,39.070049 43.434639,39.161781 
	C41.878941,39.611954 40.912621,39.902294 39.946301,40.192635 
	C39.514221,39.925125 39.082142,39.657616 37.974953,39.515594 
	C36.879570,39.637486 36.459290,39.633892 36.241028,39.428444 
	C37.301487,38.490757 38.159935,37.754917 39.336510,36.985046 
	C40.444740,36.308880 41.234844,35.666748 42.024944,35.024616 
	C42.492252,35.019184 42.959564,35.013756 43.777302,35.049004 
	C44.000118,36.363575 43.872501,37.637463 44.128532,39.049164 
z"/>
<path fill="#F2EBD0" opacity="1.000000" stroke="none" 
	d="
M41.766232,34.848911 
	C41.234844,35.666748 40.444740,36.308880 38.997154,36.834145 
	C36.895088,36.478127 35.450500,36.238983 34.157211,35.473930 
	C34.205956,34.597912 34.103405,34.247799 33.986748,33.922562 
	C33.972641,33.947441 34.024742,33.966156 34.265579,34.301929 
	C35.782578,33.742813 37.058735,32.847927 38.334896,31.953037 
	C39.392437,32.859760 40.449978,33.766483 41.766232,34.848911 
z"/>
<path fill="#080808" opacity="1.000000" stroke="none" 
	d="
M38.217121,31.650927 
	C37.058735,32.847927 35.782578,33.742813 34.545860,34.074539 
	C34.665916,32.338314 34.746525,31.165251 34.879330,29.482689 
	C34.914776,27.586264 34.898022,26.199339 34.881268,24.812414 
	C35.241177,25.886639 35.601082,26.960861 36.025314,28.853985 
	C36.215210,30.108242 36.340786,30.543600 36.466362,30.978962 
	C37.010689,31.102245 37.555019,31.225531 38.217121,31.650927 
z"/>
<path fill="#F1EEDC" opacity="1.000000" stroke="none" 
	d="
M36.717144,30.874937 
	C36.340786,30.543600 36.215210,30.108242 36.142113,29.331589 
	C36.574749,28.986269 36.954906,28.982241 37.618393,28.976341 
	C37.590454,29.573284 37.279190,30.172098 36.717144,30.874937 
z"/>
<path fill="#FDFCF9" opacity="1.000000" stroke="none" 
	d="
M45.043610,34.133881 
	C45.274532,34.288620 45.211971,34.530632 45.097771,35.144691 
	C44.841171,35.551075 44.636215,35.585407 44.225491,35.386803 
	C44.263191,34.842960 44.506660,34.532055 45.043610,34.133881 
z"/>
<path fill="#F7F2E1" opacity="1.000000" stroke="none" 
	d="
M34.995842,24.522156 
	C34.898022,26.199339 34.914776,27.586264 34.676941,29.484339 
	C34.422352,29.995489 34.017590,30.000000 33.775635,30.002079 
	C33.153763,30.221235 32.773846,30.438314 32.262741,30.732048 
	C32.131557,30.808706 31.896854,31.001734 31.819607,31.014534 
	C31.742357,31.027334 31.586716,31.044670 31.378139,30.692467 
	C30.106796,30.198986 29.044027,30.057709 27.953623,29.578297 
	C27.617420,28.162941 27.308853,27.085720 27.162018,25.756248 
	C27.192204,24.339577 27.060661,23.175154 27.228586,21.952042 
	C28.000027,21.564051 28.472002,21.234751 28.943977,20.905453 
	C30.588703,20.930254 32.233429,20.955055 34.288895,20.991096 
	C34.836563,22.078857 34.973488,23.155376 34.995842,24.522156 
z"/>
<path fill="#A6803A" opacity="1.000000" stroke="none" 
	d="
M26.051634,15.060347 
	C26.819872,14.713436 27.588112,14.366527 28.670567,13.970781 
	C29.826704,14.882054 30.668627,15.842163 31.828415,16.933525 
	C31.361359,17.436605 30.576433,17.808434 29.107410,18.129786 
	C27.971716,17.952415 27.520115,17.825521 27.068514,17.698627 
	C26.964302,17.354853 26.744310,17.119131 26.197226,16.603977 
	C26.007818,15.831109 26.029726,15.445727 26.051634,15.060347 
z"/>
<path fill="#FFFFFE" opacity="1.000000" stroke="none" 
	d="
M28.922125,20.819927 
	C28.472002,21.234751 28.000027,21.564051 27.026421,21.833897 
	C26.274008,21.570917 26.096203,21.316389 25.991379,21.010860 
	C25.991379,21.010860 26.087055,20.621016 26.448011,20.371792 
	C27.536842,20.276354 28.264717,20.430136 28.992592,20.583920 
	C28.992592,20.583920 28.900272,20.734404 28.922125,20.819927 
z"/>
<path fill="#070705" opacity="1.000000" stroke="none" 
	d="
M29.363802,20.284674 
	C28.264717,20.430136 27.536842,20.276354 26.424973,20.172413 
	C26.318205,19.600349 26.595434,18.978443 26.970589,18.027580 
	C27.520115,17.825521 27.971716,17.952415 28.770294,18.137577 
	C29.323185,18.792372 29.529099,19.388901 29.363802,20.284674 
z"/>
<path fill="#191917" opacity="1.000000" stroke="none" 
	d="
M24.433439,32.279312 
	C23.867592,31.272238 23.301743,30.265163 22.404408,29.079346 
	C22.072924,28.900599 21.993876,28.447624 21.942978,28.223421 
	C22.177187,27.769136 22.462294,27.539055 23.267052,26.871019 
	C23.622206,26.171329 23.457708,25.909592 23.545332,26.182915 
	C24.009447,28.571754 24.221443,30.425533 24.433439,32.279312 
z"/>
<path fill="#F7F6D0" opacity="1.000000" stroke="none" 
	d="
M14.332123,31.001434 
	C14.014523,30.576387 13.987659,30.127148 13.972027,29.340492 
	C14.551458,29.182972 15.119659,29.362869 15.852068,29.802021 
	C15.551804,30.366596 15.087331,30.671917 14.332123,31.001434 
z"/>
<path fill="#FCFBF3" opacity="1.000000" stroke="none" 
	d="
M25.681469,21.082464 
	C26.096203,21.316389 26.274008,21.570917 26.726955,21.892586 
	C27.060661,23.175154 27.192204,24.339577 26.890465,25.745495 
	C25.828407,25.659412 25.199631,25.331829 24.442743,24.631351 
	C24.225803,23.480434 24.136976,22.702414 24.048149,21.924391 
	C24.048149,21.924391 23.993092,21.992695 23.958035,22.019070 
	C24.405838,21.748318 24.888699,21.451193 25.681469,21.082464 
z"/>
<path fill="#BD9745" opacity="1.000000" stroke="none" 
	d="
M25.669979,15.039631 
	C26.029726,15.445727 26.007818,15.831109 25.968779,16.504911 
	C25.168360,17.082563 24.385071,17.371794 23.290569,17.691658 
	C22.987415,17.047083 22.995478,16.371872 23.002634,15.358891 
	C23.763929,15.020384 24.526127,15.019650 25.669979,15.039631 
z"/>
<path fill="#F3EBD2" opacity="1.000000" stroke="none" 
	d="
M24.570854,25.004246 
	C25.199631,25.331829 25.828407,25.659412 26.728737,25.997746 
	C27.308853,27.085720 27.617420,28.162941 27.782396,29.847727 
	C27.569143,30.656378 27.499479,30.857466 27.399166,31.319241 
	C27.327139,32.274368 27.285759,32.968803 26.973526,33.844524 
	C26.141773,34.354057 25.580873,34.682304 25.019974,35.010551 
	C24.953911,34.225777 24.887848,33.441002 24.627613,32.467770 
	C24.221443,30.425533 24.009447,28.571754 23.492260,26.154776 
	C23.187069,25.591576 22.964607,25.492632 22.964607,25.492632 
	C22.964607,25.492632 22.887703,25.325634 23.349947,25.456394 
	C24.065079,25.392851 24.317966,25.198549 24.570854,25.004246 
z"/>
<path fill="#212121" opacity="1.000000" stroke="none" 
	d="
M24.442743,24.631351 
	C24.317966,25.198549 24.065079,25.392851 23.385395,25.371578 
	C23.063583,24.120979 23.168568,23.085958 23.660851,21.987663 
	C24.136976,22.702414 24.225803,23.480434 24.442743,24.631351 
z"/>
<path fill="#A8A69E" opacity="1.000000" stroke="none" 
	d="
M23.012476,25.931892 
	C22.964607,25.492632 23.187069,25.591576 23.240141,25.619717 
	C23.457708,25.909592 23.622206,26.171329 23.543678,26.827324 
	C23.220552,26.938105 23.140448,26.654631 23.012476,25.931892 
z"/>
<path fill="#F7F4E4" opacity="1.000000" stroke="none" 
	d="
M24.865337,35.306965 
	C25.580873,34.682304 26.141773,34.354057 27.238157,34.002434 
	C28.662073,35.024246 29.550503,36.069431 30.611849,37.117870 
	C30.784763,37.121128 30.971601,37.412212 30.976570,37.752155 
	C31.007011,38.771542 31.032484,39.450985 31.027416,40.330505 
	C30.996876,40.530586 30.930885,40.929966 30.715443,40.996937 
	C30.499998,41.063908 30.073698,41.211800 30.073698,41.211800 
	C29.885057,41.158737 29.696415,41.105675 29.214920,41.017273 
	C28.512653,41.175041 28.103237,41.368145 27.372547,41.353279 
	C25.701605,41.093403 24.351936,41.041500 22.628059,40.994545 
	C21.513819,40.922569 20.773787,40.845642 20.024242,40.425613 
	C20.022697,39.396973 20.030666,38.711441 20.038635,38.025906 
	C21.595989,37.218395 23.153345,36.410889 24.865337,35.306965 
z"/>
<path fill="#9E9D95" opacity="1.000000" stroke="none" 
	d="
M23.002268,40.989601 
	C24.351936,41.041500 25.701605,41.093403 27.158218,41.477226 
	C26.451946,42.205879 25.638727,42.602612 24.475145,43.061054 
	C23.961309,43.072269 23.797838,43.021778 23.361683,42.607128 
	C23.060089,41.825180 23.031178,41.407391 23.002268,40.989601 
z"/>
<path fill="#A18345" opacity="1.000000" stroke="none" 
	d="
M30.094273,41.507790 
	C30.073698,41.211800 30.499998,41.063908 31.053194,40.954407 
	C31.803528,40.732529 32.000668,40.620152 32.559212,40.532707 
	C33.618008,40.747700 34.315403,40.937752 34.885872,41.383621 
	C34.512615,42.153172 34.266281,42.666897 34.019947,43.180626 
	C33.909447,43.476337 33.719536,43.706535 33.246922,43.972687 
	C32.590660,44.050793 32.137699,44.027435 31.345005,44.000908 
	C30.708466,43.266418 30.411657,42.535099 30.094273,41.507790 
z"/>
<path fill="#806635" opacity="1.000000" stroke="none" 
	d="
M36.039013,39.630299 
	C36.459290,39.633892 36.879570,39.637486 37.614380,39.643093 
	C37.954071,40.462448 37.979229,41.279797 38.013451,42.504044 
	C37.553070,43.029282 37.083630,43.147621 36.261974,42.807945 
	C35.866302,41.802425 35.822842,41.254917 35.845463,40.438416 
	C35.954037,39.989708 35.996525,39.810001 36.039013,39.630299 
z"/>
<path fill="#8E7139" opacity="1.000000" stroke="none" 
	d="
M35.779381,40.707413 
	C35.822842,41.254917 35.866302,41.802425 35.901299,42.764809 
	C35.476734,43.161606 35.060635,43.143524 34.332237,43.153038 
	C34.266281,42.666897 34.512615,42.153172 35.068199,41.261444 
	C35.377457,40.883442 35.779381,40.707413 35.779381,40.707413 
z"/>
<path fill="#AA9056" opacity="1.000000" stroke="none" 
	d="
M39.956139,40.416183 
	C40.912621,39.902294 41.878941,39.611954 43.208675,39.330536 
	C43.675209,39.634270 43.778332,39.929077 43.922691,40.691364 
	C42.907604,41.145912 41.851292,41.132977 40.397701,41.102985 
	C40.000427,41.085930 39.965981,40.639729 39.956139,40.416183 
z"/>
<path fill="#E9E0C2" opacity="1.000000" stroke="none" 
	d="
M19.720243,37.889938 
	C20.030666,38.711441 20.022697,39.396973 19.734901,40.463531 
	C19.265043,40.886848 19.075014,40.929138 18.674240,41.150475 
	C17.991232,41.850861 17.518970,42.372204 17.046711,42.893543 
	C16.837793,42.660011 16.615557,42.439926 16.176542,42.115807 
	C16.301006,39.925152 15.094646,36.612518 19.720243,37.889938 
z"/>
<path fill="#EEEADE" opacity="1.000000" stroke="none" 
	d="
M17.019920,42.937813 
	C17.518970,42.372204 17.991232,41.850861 18.681856,41.503151 
	C19.726665,42.198750 20.553114,42.720711 21.379562,43.242672 
	C21.379562,43.242672 21.370903,43.384754 21.432049,43.412407 
	C20.543066,43.904247 19.592937,44.368439 18.333208,44.939430 
	C17.932014,44.731735 17.774660,44.454575 17.318466,43.849300 
	C17.085384,43.483845 16.951939,43.077019 16.951939,43.077019 
	C16.951939,43.077019 16.993130,42.982082 17.019920,42.937813 
z"/>
<path fill="#E9E0C2" opacity="1.000000" stroke="none" 
	d="
M16.732479,43.130547 
	C16.951939,43.077019 17.085384,43.483845 17.136410,43.691948 
	C16.962629,43.661388 16.737825,43.422729 16.732479,43.130547 
z"/>
<path fill="#8F8D85" opacity="1.000000" stroke="none" 
	d="
M21.817371,43.147255 
	C20.553114,42.720711 19.726665,42.198750 18.892601,41.324108 
	C19.075014,40.929138 19.265043,40.886848 19.744411,40.806633 
	C20.773787,40.845642 21.513819,40.922569 22.628059,40.994545 
	C23.031178,41.407391 23.060089,41.825180 23.110470,42.554634 
	C22.839687,42.928146 22.547436,42.989990 21.817371,43.147255 
z"/>
<path fill="#F5EEDA" opacity="1.000000" stroke="none" 
	d="
M35.845463,40.438416 
	C35.779381,40.707413 35.377457,40.883442 35.195126,41.005623 
	C34.315403,40.937752 33.618008,40.747700 32.391113,40.417244 
	C31.604349,40.169750 31.336466,40.120945 31.057955,40.130428 
	C31.032484,39.450985 31.007011,38.771542 31.321262,37.737892 
	C32.442631,36.922405 33.224274,36.461124 34.005917,35.999840 
	C35.450500,36.238983 36.895088,36.478127 38.679028,36.868179 
	C38.159935,37.754917 37.301487,38.490757 36.241028,39.428444 
	C35.996525,39.810001 35.954037,39.989708 35.845463,40.438416 
z"/>
<path fill="#2A2826" opacity="1.000000" stroke="none" 
	d="
M34.157211,35.473930 
	C33.224274,36.461124 32.442631,36.922405 31.316296,37.397949 
	C30.971601,37.412212 30.784763,37.121128 30.640596,36.631783 
	C30.986227,34.396881 31.476025,32.651325 32.136745,31.276325 
	C32.872063,32.397152 33.436455,33.147419 34.000851,33.897686 
	C34.103405,34.247799 34.205956,34.597912 34.157211,35.473930 
z"/>
<path fill="#EEE9DA" opacity="1.000000" stroke="none" 
	d="
M33.986748,33.922562 
	C33.436455,33.147419 32.872063,32.397152 32.132046,31.308735 
	C31.956423,30.970587 31.896854,31.001734 31.896854,31.001734 
	C31.896854,31.001734 32.131557,30.808706 32.499313,30.811852 
	C33.250576,30.543331 33.634083,30.271664 34.017590,30.000000 
	C34.017590,30.000000 34.422352,29.995489 34.624741,29.993839 
	C34.746525,31.165251 34.665916,32.338314 34.305023,33.738766 
	C34.024742,33.966156 33.972641,33.947441 33.986748,33.922562 
z"/>
<path fill="#F7F3E3" opacity="1.000000" stroke="none" 
	d="
M31.819607,31.014534 
	C31.896854,31.001734 31.956423,30.970587 31.961123,30.938177 
	C31.476025,32.651325 30.986227,34.396881 30.467682,36.628525 
	C29.550503,36.069431 28.662073,35.024246 27.509010,33.821152 
	C27.285759,32.968803 27.327139,32.274368 27.918440,31.375500 
	C29.507814,31.128937 30.547264,31.086803 31.586716,31.044670 
	C31.586716,31.044670 31.742357,31.027334 31.819607,31.014534 
z"/>
<path fill="#191917" opacity="1.000000" stroke="none" 
	d="
M31.378139,30.692467 
	C30.547264,31.086803 29.507814,31.128937 27.949089,31.114811 
	C27.499479,30.857466 27.569143,30.656378 27.810034,30.185860 
	C29.044027,30.057709 30.106796,30.198986 31.378139,30.692467 
z"/>
<path fill="#FCFBF3" opacity="1.000000" stroke="none" 
	d="
M33.775635,30.002077 
	C33.634083,30.271664 33.250576,30.543331 32.630501,30.735195 
	C32.773846,30.438314 33.153763,30.221235 33.775635,30.002077 
z"/>
<path fill="#C1B28E" opacity="1.000000" stroke="none" 
	d="
M31.027416,40.330505 
	C31.336466,40.120945 31.604349,40.169750 32.029709,40.392303 
	C32.000668,40.620152 31.803528,40.732529 31.268639,40.887436 
	C30.930885,40.929966 30.996876,40.530586 31.027416,40.330505 
z"/>
</svg>